<svg version="1.2" baseProfile="tiny-ps" xmlns="http://www.w3.org/2000/svg" viewBox="0 0 512 512" width="512" height="512">
	<title>shield-svg</title>
	<style>
		tspan { white-space:pre }
		.shp0 { fill: #0071bc } 
		.shp1 { fill: #29abe2 } 
		.shp2 { fill: #e6e6e6 } 
		.shp3 { fill: #e56767 } 
	</style>
	<path id="Layer" class="shp0" d="M355.54 460.96L257.5 509.98L159.46 460.96C94.83 428.64 54 362.58 54 290.31L54 64.82L257.5 1.23L461 64.82L461 290.31C461 362.58 420.17 428.64 355.54 460.96Z" />
	<path id="Layer" class="shp1" d="M257.5 52.1L104.87 102.98L104.87 242.88L257.5 242.88L257.5 52.1Z" />
	<path id="Layer" class="shp2" d="M410.13 242.88L410.13 102.98L257.5 52.1L257.5 242.88L410.13 242.88Z" />
	<path id="Layer" class="shp1" d="M257.5 242.88L257.5 446.38L339.82 405.23C382.91 383.68 410.13 339.65 410.13 291.47L410.13 242.88L257.5 242.88L257.5 242.88Z" />
	<path id="Layer" class="shp2" d="M104.87 242.88L104.87 291.47C104.87 339.65 132.09 383.68 175.18 405.23L257.5 446.38L257.5 242.88L104.87 242.88L104.87 242.88Z" />
	<path id="Layer" class="shp3" d="M383.51 510.3C384.63 511.4 386.14 512.01 387.71 512L387.71 512C389.29 512 390.8 511.37 391.92 510.25L510.31 391.5C512.6 389.15 512.56 385.39 510.21 383.11C509.11 382.04 507.64 381.43 506.11 381.42L440.82 381.42L440.82 233.04C440.82 229.76 438.17 227.1 434.89 227.1L339.92 227.1C336.64 227.1 333.99 229.76 333.99 233.04L333.99 381.42L268.95 381.42C265.67 381.42 263.01 384.07 263 387.35C263 388.93 263.62 390.44 264.74 391.56L383.51 510.3Z" />
	<g id="Layer">
	</g>
	<g id="Layer">
	</g>
	<g id="Layer">
	</g>
	<g id="Layer">
	</g>
	<g id="Layer">
	</g>
	<g id="Layer">
	</g>
	<g id="Layer">
	</g>
	<g id="Layer">
	</g>
	<g id="Layer">
	</g>
	<g id="Layer">
	</g>
	<g id="Layer">
	</g>
	<g id="Layer">
	</g>
	<g id="Layer">
	</g>
	<g id="Layer">
	</g>
	<g id="Layer">
	</g>
	<g id="Layer">
	</g>
</svg>